<?xml version="1.0" standalone="no"?><!DOCTYPE svg PUBLIC "-//W3C//DTD SVG 1.1//EN" "http://www.w3.org/Graphics/SVG/1.1/DTD/svg11.dtd"><svg t="1596687604868" class="icon" viewBox="0 0 1024 1024" version="1.1" xmlns="http://www.w3.org/2000/svg" p-id="1759" xmlns:xlink="http://www.w3.org/1999/xlink" width="81" height="81"><defs><style type="text/css"></style></defs><path d="M512 512m-512 0a512 512 0 1 0 1024 0 512 512 0 1 0-1024 0Z" fill="#3296FA" p-id="1760"></path><path d="M590.7456 466.2784l22.2208 8.9856-0.384 126.2336a55.5008 55.5008 0 0 0 55.8336 56.8832 225.9456 225.9456 0 0 0 96.9472-28.7232c0.5376-0.256 0.5376-0.7936 0.256-1.3312a1.3824 1.3824 0 0 0-1.0496-0.5376 41.1648 41.1648 0 0 1-47.104-38.0928v-50.1504a31.6672 31.6672 0 0 0-19.84-29.3632l-21.6832-8.9856v-96.5632a31.2832 31.2832 0 0 0-19.84-29.3632l-80.4352-32.8192a3.712 3.712 0 0 0-4.7616 2.1248 2.8672 2.8672 0 0 0-0.256 1.3312v91.008a32.4864 32.4864 0 0 0 20.096 29.3632z m271.36 139.1616a427.52 427.52 0 0 1-58.88 40.96 314.88 314.88 0 0 1-171.6992 48.1536 66.7648 66.7648 0 0 1-60.5952-66.56v-148.48a31.4368 31.4368 0 0 0-19.584-29.3632l-21.9648-8.9856v-96.5888a31.6672 31.6672 0 0 0-19.84-29.3632l-80.4608-32.5632a3.712 3.712 0 0 0-4.7616 2.1248 1.9712 1.9712 0 0 0-0.256 1.3312v91.008a31.6672 31.6672 0 0 0 19.84 29.3632l21.9648 8.9856v228.864a113.6128 113.6128 0 0 0 33.0752 89.4208 108.0832 108.0832 0 0 0 76.8 32.2816 247.6544 247.6544 0 0 0 123.2896-30.4384 640 640 0 0 0 112.64-79.104c19.0464-16.6656 36.5056-33.28 52.1216-49.4848a1.2032 1.2032 0 0 0 0-1.3312c-0.5376-0.768-1.0752-0.768-1.6128-0.2304z m-309.4528 191.8208a125.696 125.696 0 0 1-95.2576-38.6304 122.88 122.88 0 0 1-33.28-85.1968v-253.44a31.6672 31.6672 0 0 0-19.84-29.3632l-21.6832-8.9856v-96.6144a31.6672 31.6672 0 0 0-19.84-29.3632l-80.4096-32.7936a3.712 3.712 0 0 0-4.7616 2.1248 2.3808 2.3808 0 0 0-0.256 1.3312v90.752a31.6672 31.6672 0 0 0 19.84 29.3632l22.2208 8.9856v356.6336a108.9024 108.9024 0 0 0 35.2 76.9792c27.2384 24.8576 57.1392 33.28 109.0048 29.1072a325.12 325.12 0 0 0 89.6-19.0464 0.9728 0.9728 0 0 0 0.5376-1.3312 1.3824 1.3824 0 0 0-1.0752-0.512z" fill="#FFFFFF" p-id="1761"></path></svg>